<svg xmlns="http://www.w3.org/2000/svg" viewBox="0 0 800 520" role="img" aria-labelledby="todoTitle todoDesc">
  <title id="todoTitle">To-Do App preview</title>
  <desc id="todoDesc">A stylized preview card for the To-Do App project.</desc>
  <defs>
    <linearGradient id="todoBg" x1="0%" y1="0%" x2="100%" y2="100%">
      <stop offset="0%" stop-color="#132238" />
      <stop offset="100%" stop-color="#0a1628" />
    </linearGradient>
  </defs>
  <rect width="800" height="520" rx="36" fill="url(#todoBg)" />
  <circle cx="670" cy="90" r="90" fill="#5eead4" opacity="0.15" />
  <circle cx="120" cy="430" r="110" fill="#f6b86d" opacity="0.12" />
  <text x="64" y="82" fill="#5eead4" font-family="Arial, sans-serif" font-size="24" font-weight="700" letter-spacing="4">JAVASCRIPT PRODUCTIVITY</text>
  <text x="64" y="150" fill="#edf4ff" font-family="Arial, sans-serif" font-size="52" font-weight="700">To-Do App</text>
  <rect x="64" y="198" width="672" height="220" rx="26" fill="#0f1f35" stroke="rgba(255,255,255,0.12)" />
  <rect x="96" y="236" width="608" height="42" rx="16" fill="#152b48" />
  <rect x="110" y="248" width="24" height="18" rx="6" fill="#5eead4" />
  <rect x="148" y="248" width="230" height="18" rx="6" fill="#edf4ff" opacity="0.9" />
  <rect x="96" y="294" width="608" height="42" rx="16" fill="#152b48" />
  <rect x="110" y="306" width="24" height="18" rx="6" fill="#f6b86d" />
  <rect x="148" y="306" width="290" height="18" rx="6" fill="#edf4ff" opacity="0.82" />
  <rect x="96" y="352" width="608" height="42" rx="16" fill="#152b48" />
  <rect x="110" y="364" width="24" height="18" rx="6" fill="#5eead4" />
  <rect x="148" y="364" width="190" height="18" rx="6" fill="#edf4ff" opacity="0.78" />
  <text x="64" y="470" fill="#96a8c6" font-family="Arial, sans-serif" font-size="24">Dynamic task management with clean, focused interactions.</text>
</svg>
